<svg width="50" height="50" viewBox="0 0 50 50" fill="none" xmlns="http://www.w3.org/2000/svg">
<path d="M12.2412 0.731991C12.0394 1.12239 11.7591 1.71774 11.6358 2.05934C11.0977 3.43549 11.0416 3.85516 10.9856 6.99785L10.9295 10.0039L10.268 11.097C9.05725 13.1173 8.55275 14.8741 8.56396 17.1091C8.57518 21.667 11.4116 25.8247 16.5014 28.7527C17.6001 29.3773 19.5508 30.2362 20.7055 30.5875C21.1091 30.7047 21.4567 30.8218 21.4791 30.8315C21.5015 30.8511 21.2885 31.0755 21.0082 31.3293C20.3019 31.9735 20.1226 32.1979 19.6517 32.9299C18.979 34.0035 18.3512 35.9067 18.3512 36.8827V37.2145H16.8153C14.3264 37.2048 14.1583 37.0876 12.8017 34.3841C12.286 33.3594 11.7255 32.3346 11.5573 32.1296C11.0528 31.4855 9.94292 30.6656 9.12452 30.324C8.05947 29.8848 7.16258 29.7775 4.81947 29.8165C2.93602 29.8458 2.79027 29.8653 2.19609 30.0996C1.34405 30.4509 0.705018 30.9779 0.335053 31.6319C-0.102178 32.4126 -0.113389 33.496 0.312631 34.2963C0.962872 35.4968 1.98308 36.0531 3.67595 36.1409C4.79705 36.1995 5.22307 36.3361 5.4585 36.7168C5.51456 36.8241 5.87331 37.6147 6.23207 38.4735C6.60203 39.3422 7.08411 40.3475 7.30833 40.7183C8.17158 42.1335 9.52811 43.2559 11.2322 43.9489C12.656 44.5247 13.3062 44.6321 15.9184 44.7004L18.2391 44.7589V47.3843V50H29.282H40.3249V43.6756C40.3249 40.2011 40.2688 36.9315 40.2128 36.4142C40.011 34.5793 39.0917 32.7738 37.7351 31.505C37.3539 31.1536 37.0625 30.8511 37.0849 30.8315C37.1073 30.8218 37.4548 30.7047 37.8584 30.5875C41.5917 29.4456 45.2914 26.9959 47.3878 24.2631C49.204 21.9012 50 19.7248 50 17.0603C50 14.7765 49.5628 13.2637 48.2847 11.058L47.6233 9.93558L47.5784 6.95881C47.5111 3.41597 47.3766 2.72301 46.3116 0.722233L45.9304 -3.8147e-06L44.0581 0.0585594C41.928 0.117119 41.2105 0.243996 39.7979 0.81007C38.6208 1.28831 37.9705 1.66894 37.1073 2.40094C36.5243 2.89869 36.3786 2.97677 36.0983 2.92797C35.9301 2.90845 35.1902 2.77181 34.4727 2.63517C32.4996 2.2643 30.8179 2.14718 28.4412 2.20574C26.3671 2.25454 25.246 2.38142 23.3177 2.78157L22.2975 2.98653L21.58 2.42046C19.4499 0.722233 17.2974 0.0292778 14.1246 0.0292778H12.6224L12.2412 0.731991ZM17.0059 2.4595C18.1494 2.80109 19.0911 3.34764 20.4028 4.42123L21.6136 5.42651L22.589 5.17275C25.19 4.47979 26.9613 4.2846 29.9546 4.35292C32.4883 4.41148 33.8225 4.58715 35.975 5.16299L36.9728 5.42651L37.78 4.75307C40.0222 2.84989 41.1545 2.33261 43.3182 2.20574L44.3608 2.14718L44.5402 2.52781C45.0223 3.53308 45.1456 4.52859 45.1456 7.65176V10.6481L45.5492 11.1653C46.917 12.9124 47.7354 15.528 47.5672 17.6069C47.1188 23.2969 41.7375 27.8645 33.6207 29.4652L32.2417 29.7384L34.3157 31.544C36.558 33.5058 36.9952 34.023 37.4997 35.3113L37.8024 36.0921L37.836 41.9676L37.8696 47.8528H29.2932H20.7055V46.0472C20.7055 44.0757 20.6383 43.7634 20.0553 43.2364C19.4275 42.6606 19.3041 42.641 16.3893 42.5727C13.8892 42.5239 13.6426 42.5044 12.9026 42.2702C11.5125 41.8407 10.268 40.9721 9.57296 39.9473C9.416 39.7033 8.92272 38.6687 8.47428 37.6537C7.62224 35.7017 7.29712 35.1747 6.64687 34.7355C5.99663 34.3061 5.46971 34.1597 4.32619 34.0914C3.17145 34.0133 2.77906 33.8766 2.56605 33.4472C2.27456 32.9006 2.48757 32.3736 3.10418 32.0906C3.54141 31.8954 6.8711 31.8856 7.61102 32.0808C8.30611 32.2565 9.09088 32.7445 9.48327 33.2422C9.66265 33.4765 10.1671 34.4037 10.6156 35.3113C11.5685 37.2926 11.7927 37.644 12.4318 38.1612C13.6314 39.1177 14.5395 39.3617 16.961 39.3617C18.7436 39.3617 19.1808 39.2934 19.775 38.9127C20.3692 38.5223 20.6046 38.0832 20.7728 36.99C20.9746 35.7408 21.2885 34.8233 21.8042 33.945C22.1518 33.3789 22.5666 32.969 24.2819 31.4952L26.3447 29.7384L24.7864 29.4066C22.7347 28.9869 21.4567 28.616 20.0889 28.05C13.082 25.1513 9.64022 19.5979 11.4676 14.1031C11.8152 13.0783 12.2524 12.2292 12.8914 11.3703L13.3959 10.6871L13.4408 7.37849C13.4856 4.38219 13.508 4.01132 13.7323 3.32812C14.1246 2.09838 14.0574 2.14718 15.257 2.19598C15.8736 2.22526 16.5687 2.33261 17.0059 2.4595Z" fill="white"/>
</svg>
