<svg width="50" height="50" viewBox="0 0 50 50" fill="none" xmlns="http://www.w3.org/2000/svg">
<path d="M11.8958 0.0952339C10.2651 0.290585 8.34147 0.925476 6.87677 1.75571C3.08808 3.93388 0.588321 7.72368 0.109853 12.0312C-0.0366175 13.3302 -0.0366175 36.6551 0.109853 37.9542C0.803144 44.2347 5.7636 49.1966 12.0423 49.8901C13.341 50.0366 36.659 50.0366 37.9577 49.8901C44.2364 49.1966 49.1969 44.2347 49.8901 37.9542C50.0366 36.6551 50.0366 13.3302 49.8901 12.0312C49.1969 5.75064 44.2364 0.788731 37.9577 0.0952339C36.8055 -0.0317421 13.0187 -0.0317421 11.8958 0.0952339ZM38.9732 3.23061C41.0043 3.78736 42.5666 4.67621 43.9337 6.05343C45.3105 7.42088 46.1991 8.98369 46.7655 11.0153L47.0193 11.953V24.9927V38.0323L46.7655 38.97C46.1991 41.0017 45.3105 42.5645 43.9337 43.9319C42.5666 45.3091 41.0043 46.198 38.9732 46.7645L38.0358 47.0185H25H11.9642L11.0268 46.7645C8.9957 46.198 7.43336 45.3091 6.0663 43.9319C4.68948 42.5645 3.8009 41.0017 3.23455 38.97L2.98067 38.0323V24.9927V11.953L3.23455 11.0153C3.8009 8.98369 4.68948 7.42088 6.05654 6.05343C7.67747 4.43202 9.81594 3.35759 12.0618 3.02549C12.384 2.97666 18.36 2.94735 25.3418 2.95712L38.0358 2.96689L38.9732 3.23061Z" fill="white"/>
<path d="M38.5241 6.50277C36.1415 6.83487 34.5206 9.14978 35.0967 11.3963C35.497 12.9884 36.5126 13.9945 38.0944 14.4047C40.7797 15.0884 43.4162 12.6563 42.967 9.91164C42.7229 8.37814 41.6 7.08883 40.1353 6.64929C39.7056 6.52231 38.9147 6.45394 38.5241 6.50277ZM39.6177 9.61862C40.145 9.95071 40.2329 10.7614 39.7935 11.2205C39.4322 11.5917 38.9928 11.6796 38.5436 11.4647C37.8601 11.1424 37.7136 10.2437 38.2604 9.73583C38.6608 9.35489 39.1295 9.31582 39.6177 9.61862Z" fill="white"/>
<path d="M23.1154 11.4647C17.7156 12.207 13.1555 16.2703 11.7786 21.5936C10.5678 26.2527 11.9251 31.1755 15.372 34.6235C20.7426 39.9956 29.2574 39.9956 34.628 34.6235C39.9985 29.2513 39.9985 20.734 34.628 15.3619C31.5423 12.2851 27.4119 10.8786 23.1154 11.4647ZM26.5624 14.3949C28.9059 14.7465 30.8979 15.7526 32.5676 17.4229C36.7762 21.6229 36.7762 28.3625 32.5676 32.5625C28.3688 36.7723 21.6312 36.7723 17.4324 32.5625C13.2238 28.3625 13.2238 21.6229 17.4324 17.4229C19.8638 14.9907 23.2033 13.8772 26.5624 14.3949Z" fill="white"/>
</svg>
