<svg width="50" height="50" viewBox="0 0 50 50" fill="none" xmlns="http://www.w3.org/2000/svg">
<path d="M5.6686 0.0582743C3.07752 0.46554 0.955767 2.3628 0.183331 4.96533C-0.0611104 5.7898 -0.0611104 7.71686 0.183331 8.54132C0.81888 10.7068 2.45175 12.4451 4.53439 13.2C5.29705 13.4782 5.48283 13.498 6.59748 13.498C8.27924 13.498 9.29612 13.1702 10.6063 12.1769C11.7503 11.3127 12.8845 9.52472 13.1485 8.15392C13.305 7.38906 13.305 5.86926 13.1485 5.20373C12.9725 4.40907 12.3468 3.15747 11.7699 2.4522C10.9094 1.38934 9.49167 0.46554 8.25969 0.167541C7.59481 -0.00132561 6.33349 -0.050993 5.6686 0.0582743ZM8.06413 1.90587C9.47212 2.3032 10.6552 3.4058 11.2908 4.91566C11.633 5.7302 11.6819 7.32946 11.3983 8.27312C10.7432 10.4783 8.50413 12.0478 6.36282 11.8193C4.61262 11.6306 3.23396 10.826 2.39309 9.49492C1.50332 8.07446 1.40554 6.1474 2.13887 4.568C3.18508 2.31314 5.60994 1.22047 8.06413 1.90587Z" fill="white"/>
<path d="M35.5296 14.4513C33.0949 14.6897 30.7287 15.7427 29.0568 17.332C28.6559 17.7194 28.2941 18.0273 28.2648 18.0273C28.2354 18.0273 28.2061 17.6995 28.2061 17.3022C28.2061 16.4479 28.0301 16.0407 27.4923 15.6036L27.111 15.2957H22.3982H17.6853L17.2844 15.5639C16.5022 16.0903 16.5707 14.5606 16.5902 32.7485L16.6196 48.9696L16.8347 49.2775C16.9618 49.4464 17.2258 49.6749 17.4213 49.7742C17.7636 49.953 18.1253 49.9629 22.6133 49.9927C25.7715 50.0126 27.5608 49.9828 27.815 49.9133C28.2257 49.804 28.7243 49.4265 28.9199 49.0789C29.0079 48.9199 29.047 46.526 29.0861 38.937C29.135 29.2222 29.1448 28.9937 29.3403 28.4474C30.3963 25.5171 33.2807 24.3648 36.0478 25.7853C36.742 26.1429 37.5633 26.9375 37.8371 27.5137C38.3162 28.5566 38.3064 28.358 38.3651 38.9469L38.4238 48.8901L38.6975 49.2477C39.2549 49.9927 39.0593 49.9629 44.2024 49.9629H48.7979L49.1499 49.7245C49.3357 49.5954 49.5996 49.3272 49.7268 49.1385L49.9614 48.7809L49.9908 37.3576C50.0201 25.4972 50.0005 24.8515 49.6094 23.292C48.5143 18.8717 45.0921 15.5539 40.7411 14.65C39.5873 14.4116 36.9082 14.3123 35.5296 14.4513ZM39.206 16.14C41.6113 16.3585 43.5082 17.2227 45.2193 18.8915C46.6957 20.312 47.6246 22.0305 48.1232 24.2357C48.2894 24.9807 48.2992 25.7356 48.2992 36.6523V48.2743H44.1926H40.086L40.0371 38.49C39.9784 28.8745 39.9784 28.6957 39.7731 27.9408C39.294 26.2025 38.3553 25.0403 36.7713 24.2257C33.1634 22.3483 29.0861 24.1363 27.7563 28.1593C27.5803 28.6758 27.5706 29.3116 27.5217 38.49L27.4728 48.2743L22.8968 48.3041L18.3307 48.3239V32.6293V16.9347H22.4862H26.6417L26.6515 19.6365V22.3483L28.6265 20.3021C30.8559 17.9975 31.0905 17.7989 32.2541 17.1929C34.1705 16.1996 36.302 15.8718 39.206 16.14Z" fill="white"/>
<path d="M2.39308 15.3752C1.88464 15.5441 1.06332 16.3984 0.936208 16.905C0.857987 17.193 0.838432 21.7524 0.848209 32.7983L0.877542 48.2744L1.17087 48.7214C1.59131 49.3472 2.18775 49.7743 2.83308 49.9134C3.19485 49.9928 4.53439 50.0127 6.95925 49.9928L10.5574 49.963L11.0952 49.6551C11.7014 49.3074 12.2099 48.7015 12.3663 48.1452C12.425 47.8969 12.4641 42.7514 12.4641 32.6095C12.4641 17.6996 12.4641 17.4314 12.2685 16.905C12.0436 16.2891 11.5254 15.7428 10.8997 15.4547C10.4792 15.256 10.2837 15.2461 6.59748 15.256C4.05529 15.266 2.61797 15.3057 2.39308 15.3752ZM10.4792 17.1732L10.753 17.4116L10.7823 32.54C10.8019 49.3372 10.8605 48.0161 10.1468 48.2247C9.89256 48.3042 8.65079 48.324 6.37259 48.3042L2.96019 48.2744L2.72552 47.9962L2.49086 47.7181V32.5698V17.4215L2.7353 17.1831L2.96996 16.9348H6.5877H10.2054L10.4792 17.1732Z" fill="white"/>
</svg>
