<svg width="50" height="50" viewBox="0 0 50 50" fill="none" xmlns="http://www.w3.org/2000/svg">
<path d="M46.2003 0.24707C45.9073 0.393021 44.6571 1.08908 43.4166 1.79638C42.1859 2.50367 40.8966 3.23342 40.5645 3.40182L39.9491 3.71618L39.2752 3.36814C35.4659 1.41467 30.7579 2.40263 27.7104 5.80437C25.3174 8.46515 24.0281 11.8893 23.862 16.0096L23.8034 17.5028L23.3541 17.4354C16.3508 16.3689 10.5196 11.7995 6.96424 4.58065C6.4954 3.64882 6.1633 3.32323 5.57725 3.25587C4.95213 3.18851 4.5712 3.36814 4.20003 3.90703C3.78003 4.51328 3.15491 5.89419 2.88142 6.82602C2.60793 7.74662 2.3442 9.62151 2.3442 10.5983C2.35397 12.0128 2.75444 14.1572 3.26235 15.437C3.40886 15.7851 3.49677 16.0882 3.47724 16.1106C3.4577 16.1443 3.05723 16.0321 2.60793 15.8749C1.62141 15.5269 1.24047 15.5156 0.781401 15.7963C0.420003 16.0096 0 16.7843 0 17.2221C0 17.3681 0.0879076 17.9294 0.19535 18.4683C1.04512 22.6335 3.14514 25.8444 6.41726 27.9887L7.14982 28.4714L6.63214 28.6398C6.33912 28.7409 5.90935 28.8756 5.67493 28.943C5.08888 29.1226 4.86422 29.3135 4.61027 29.8299C4.09259 30.8965 4.45399 31.6823 6.24144 33.3102C8.22425 35.1178 10.6173 36.4987 13.362 37.408C13.9675 37.6101 14.4657 37.8122 14.4657 37.8571C14.4657 38.0031 13.3913 38.8114 12.5122 39.3278C11.4378 39.9565 10.1484 40.4393 8.75169 40.7424C7.87262 40.9333 7.16936 40.9894 5.03027 41.0343C2.02188 41.0905 1.71908 41.1466 1.31861 41.8314C1.02559 42.3254 0.996287 43.0327 1.23071 43.6053C1.40652 44.0319 2.2563 44.8402 3.19398 45.4914C5.75307 47.254 11.0373 49.0279 15.5792 49.6453C22.1234 50.5435 28.316 49.7239 33.1119 47.3214C35.837 45.9517 37.8784 44.335 40.0175 41.8427C44.2468 36.8804 46.7083 31.3006 47.6362 24.5645C47.8804 22.757 47.8804 18.2774 47.6264 16.1668L47.4506 14.6848L48.652 12.4844C49.3064 11.2719 49.8827 10.1155 49.9413 9.91341C50.1562 9.10508 49.7655 8.24061 49.0232 7.9038C48.6813 7.74662 48.4859 7.7354 47.6459 7.83644C47.1087 7.89257 46.4934 7.94871 46.2883 7.94871H45.9073L47.1283 5.14199C47.7925 3.6039 48.3687 2.15564 48.398 1.91988C48.4859 1.27994 48.1343 0.550194 47.5678 0.224617C47.0306 -0.0785103 46.8743 -0.0785103 46.2003 0.24707ZM43.5631 5.6472C43.5631 5.66965 43.192 6.55658 42.7329 7.62313C41.844 9.68888 41.7659 10.0481 42.0785 10.7554C42.1664 10.9687 42.391 11.2606 42.5766 11.3954C42.938 11.676 43.524 11.7209 44.911 11.5525C45.292 11.5076 45.6143 11.4964 45.6143 11.5301C45.6143 11.5638 45.3603 12.0577 45.0575 12.6528C44.5203 13.6632 44.491 13.753 44.491 14.4491C44.491 14.8532 44.5789 15.9422 44.6766 16.8741C44.8915 18.7939 44.9208 21.87 44.745 23.4979C44.0906 29.4819 41.8831 34.6575 38.0249 39.2829C35.8565 41.8763 33.3854 43.6839 30.3672 44.8739C24.5262 47.1642 16.4192 47.1193 9.47449 44.728C8.85914 44.5147 8.4196 44.3238 8.49774 44.2901C8.57588 44.2564 8.97635 44.1666 9.37681 44.0993C11.301 43.7512 13.6159 42.7184 15.2569 41.4946C16.7708 40.3495 18.9197 38.1153 19.1443 37.4193C19.4081 36.6334 19.1346 35.7465 18.4899 35.3198C18.3239 35.1963 17.6792 35.0055 17.0541 34.882C14.9248 34.4666 12.8247 33.7256 11.0861 32.7713C10.168 32.2661 8.98611 31.469 8.98611 31.3568C8.98611 31.3231 9.26937 31.1547 9.621 30.975C10.6857 30.4137 11.9164 29.5043 12.1215 29.1226C12.3657 28.6623 12.3657 27.7642 12.1215 27.3375C11.8578 26.866 11.6331 26.7313 10.4805 26.2934C8.10704 25.3841 6.60284 24.3175 5.23539 22.5661C4.6298 21.7802 3.71166 20.186 3.71166 19.9053C3.71166 19.838 4.2391 19.7931 5.15725 19.7931C6.06563 19.7931 6.72005 19.7369 6.9447 19.6471C7.6675 19.3552 8.10704 18.4458 7.92145 17.6263C7.86285 17.3793 7.55029 16.8179 7.22796 16.3576C6.56377 15.4258 5.86051 13.8765 5.59679 12.7763C5.39167 11.923 5.34283 8.9479 5.52841 8.73459C5.60655 8.64478 5.81167 8.88054 6.27074 9.59906C10.588 16.2791 17.0639 20.3432 24.4481 20.9831C25.7862 21.0954 25.8253 21.0954 26.2551 20.8372C26.8802 20.4667 27.0853 19.9952 27.0169 19.0633C26.7825 15.8973 26.8509 14.5613 27.3197 12.8324C28.5504 8.35287 31.7249 5.63597 35.4952 5.84928C36.7747 5.91665 37.5756 6.17486 38.777 6.90461C39.8612 7.55577 39.998 7.54454 41.9124 6.45553C43.3873 5.62474 43.5631 5.53493 43.5631 5.6472Z" fill="white"/>
</svg>
